<svg version="1" xmlns="http://www.w3.org/2000/svg" width="609.333" height="609.333" viewBox="0 0 457.000000 457.000000"><path d="M214.5 1.7c-8.7 1.8-16.3 5.4-38 18.1-15.9 9.3-78.8 45.6-86.5 50-19.2 10.8-38.4 22.3-42.5 25.3-12.1 9-20 20.7-24.2 36.3-1.4 5.4-1.6 15.6-1.8 94.1-.1 93.8.1 97.6 4.8 109.1 6.1 15.2 15.9 25.1 35.9 36.6 7.3 4.2 20.5 11.8 29.3 16.9 8.8 5 18 10.3 20.5 11.7 2.5 1.4 5 2.8 5.5 3.2.6.4 2.6 1.7 4.5 2.7 6.6 3.8 37.5 21.6 56.3 32.5 10.4 6.1 21.2 12 24 13.3 13.5 5.9 31.3 6.7 45 2.1 4.4-1.5 21.5-10.2 38.5-19.5 16.9-9.2 34.8-18.9 39.7-21.6 5-2.6 10.4-5.6 12-6.5 3.6-2.1 9.1-5.1 21-11.5 44.2-23.8 54.3-30 59.8-37.2 1.2-1.6 2.4-3 2.7-3.3 1.3-1.3 5.9-8.9 7.7-13.1 2.7-6.2 5-16.1 5.3-22.9.4-11.7.3-35-.2-35.6-.3-.3-14.2 7.3-30.9 16.9-16.7 9.6-32.4 18.5-34.9 19.9-2.5 1.4-7.2 4.1-10.5 6-3.3 2-8 4.7-10.5 6-2.5 1.4-7.7 4.4-11.7 6.7-3.9 2.2-8.7 4.9-10.5 5.9-1.8 1.1-9.3 5.4-16.6 9.6-7.4 4.2-14 7.6-14.8 7.6-1.6 0-1.6.6-1.6-22.8 0-9.6.4-17.7.8-18.2.5-.4 3.4-2.2 6.4-3.8 3-1.6 19-10.5 35.5-19.7s32.2-17.9 34.8-19.4c5.6-3 3.5-1.8 33.5-18.6 12.8-7.2 24.7-13.8 26.6-14.7 1.9-1 3.8-2.3 4.2-3 1.2-1.9 1.2-55.8 0-55.8-.5 0-5.5 2.5-11 5.6-13.9 7.8-14.4 8.1-46.6 25.9-15.7 8.7-29.6 16.5-31 17.3-1.4.9-2.7 1.7-3 1.7-.3 0-2.1 1-4 2.1-9.1 5.5-43.9 24.4-44.9 24.4-1.3 0-1.3.9-1.3-21.3 0-9.8.3-18.2.8-18.7.9-.8 41.3-23 41.9-23 .2 0 3.4-1.7 7.2-3.9 3.7-2.1 9.7-5.4 13.3-7.3 16.7-9 22.9-12.4 35.5-19.3 10-5.5 16.2-8.8 25.5-13.8 15-7.9 17.4-9.7 18-13.7 1-5.7-1.4-19-4.4-24.9-1.5-2.9-4.8-7.5-7.3-10.2-4.1-4.4-16.8-13.8-21.7-16-1.2-.6-3-1.5-4.1-2.2-2.3-1.4-16.4-9.5-21.5-12.5-1.9-1.1-11.8-6.8-22-12.7-10.2-5.9-21-12.1-24-13.8-3-1.7-8.2-4.7-11.5-6.7-3.3-2-6.7-3.9-7.5-4.3-.8-.4-3-1.6-4.8-2.7-6.9-4.2-41.9-24.4-46.8-27-4.9-2.6-12.4-5.5-17.5-6.6-5.4-1.2-19.8-1-26.4.3z"/></svg>