<svg version="1.1" id="Layer_1" xmlns="http://www.w3.org/2000/svg" x="0" y="0" viewBox="0 0 476.4 317.2" xml:space="preserve"><style>.st0{fill:#00a69c}</style><path class="st0" d="M76.4 265.4c0 15.3-8.8 16-16.6 16H26.6v1c0 8.4 7 14.1 17.5 14.1 10.6 0 15.8-6.4 21.4-6.4 6.2 0 9.8 7.6 9.8 11.7 0 6.5-12.5 15.4-31.9 15.4C18 317.2 0 302.6 0 280.8v-12.5c0-19.2 17.5-35.5 39.5-35.5 19.7 0 36.9 13.2 36.9 32.6m-28.5 1c2.4 0 3.6-.9 3.6-4.1 0-6.9-6.2-10.3-12.5-10.3-6.2 0-12.4 3.4-12.4 10.3v4.1h21.3zM159.3 216.7v90.6c0 4.1-5.5 8.2-13 8.2-6.5 0-11.8-4.1-11.8-8.2v-3.8c-3.4 7-13 13.7-24 13.7-16 0-29.9-17.3-29.9-36.4v-12c0-19.7 13.6-36 30.4-36 10.5 0 18.2 6.4 21.8 13v-29.2c0-4.8 6-8.1 13.6-8.1 7.4.1 12.9 3.4 12.9 8.2m-52.2 64.1c0 6.7 5.5 13.2 12.4 13.2 7.4 0 13.2-8.1 13.2-11v-14.2c0-8.1-6.9-12.9-13-12.9-7 0-12.5 6.4-12.5 12.9v12zM169.6 281.2v-39.1c0-4.1 6-8.2 13.4-8.2 7 0 13.2 4.1 13.2 8.2v39.1c0 6.5 5.7 12.9 12.5 12.9 6.9 0 12.3-6.4 12.3-12.9v-39.3c0-4.3 6.2-8.1 13.4-8.1 7.7 0 13.2 3.8 13.2 8.1v39.3c0 19.2-17.7 36-38.9 36-21.4 0-39.1-17-39.1-36M284.4 286.5c0 5 1.7 6.7 7 6.7h7.4c7.7 0 11.3 5.7 11.3 11.2 0 5.7-3.6 11.1-11.3 11.1h-7.4c-21.8 0-33.6-8.7-33.6-29v-69.8c0-4.8 7-8.1 13.2-8.1 6.7 0 13.4 3.3 13.4 8.1v17.2h19.4c4.3 0 6.5 4.8 6.5 9.4 0 4.8-2.2 9.4-6.5 9.4h-19.4v33.8zM390.6 265.4c0 15.3-8.8 16-16.6 16h-33.1v1c0 8.4 7 14.1 17.5 14.1 10.6 0 15.8-6.4 21.4-6.4 6.2 0 9.8 7.6 9.8 11.7 0 6.5-12.5 15.4-31.9 15.4-25.4 0-43.4-14.6-43.4-36.4v-12.5c0-19.2 17.5-35.5 39.5-35.5 19.7 0 36.8 13.2 36.8 32.6m-28.4 1c2.4 0 3.6-.9 3.6-4.1 0-6.9-6.2-10.3-12.5-10.3-6.2 0-12.4 3.4-12.4 10.3v4.1h21.3zM426 307.3c0 4.1-6.2 8.2-13.4 8.2-7.7 0-13.2-4.1-13.2-8.2v-65.4c0-4.8 5.5-8.1 13.2-8.1 6.3 0 11.7 3.3 11.7 8.1v4c3.3-6.7 11.5-13.1 23-13.1 15.6 0 29.2 16.3 29.2 36v38.4c0 5.5-6.7 8.2-13.4 8.2-6.2 0-13.2-2.7-13.2-8.2v-38.4c0-6.5-5.5-12.9-12.4-12.9-5.7 0-11.5 4.8-11.5 12.9v38.5zM262.9 139v-14.6c0-.3.2-.6.5-.8L318 93.3c.2-.1.3-.3.3-.4V71.3L264 101.5c-.4.2-1-.1-1-.6V86.3c0-.2.1-.5.3-.6l53.5-29.1c.8-.4 1.3-1.2 1.3-2.1v-1.6c0-8.9-4.7-13.4-12.4-17.8l-55-31.8c-7.7-4.4-17.2-4.4-24.9 0l-55 31.8c-7.7 4.4-12.4 12.6-12.4 21.5v63.5c0 8.9 4.7 17.1 12.4 21.5l55 31.8c7.7 4.4 17.2 4.4 24.8 0l55-30c7.7-4.4 12.4-12.6 12.4-21.5V109l-53.9 30.7c-.5.4-1.2 0-1.2-.7"/></svg>