<?xml version="1.0" encoding="UTF-8" standalone="no"?>
<svg
   xmlns:dc="http://purl.org/dc/elements/1.1/"
   xmlns:cc="http://creativecommons.org/ns#"
   xmlns:rdf="http://www.w3.org/1999/02/22-rdf-syntax-ns#"
   xmlns:svg="http://www.w3.org/2000/svg"
   xmlns="http://www.w3.org/2000/svg"
   xmlns:sodipodi="http://sodipodi.sourceforge.net/DTD/sodipodi-0.dtd"
   xmlns:inkscape="http://www.inkscape.org/namespaces/inkscape"
   inkscape:version="1.0beta1 (32d4812, 2019-09-19)"
   height="214.4021"
   width="874.14929"
   sodipodi:docname="training_timeline.svg"
   id="svg65"
   stroke-miterlimit="10"
   stroke-linecap="square"
   stroke="none"
   fill="none"
   viewBox="0 0 874.14929 214.4021"
   version="1.1">
  <metadata
     id="metadata71">
    <rdf:RDF>
      <cc:Work
         rdf:about="">
        <dc:format>image/svg+xml</dc:format>
        <dc:type
           rdf:resource="http://purl.org/dc/dcmitype/StillImage" />
        <dc:title></dc:title>
      </cc:Work>
    </rdf:RDF>
  </metadata>
  <defs
     id="defs69" />
  <sodipodi:namedview
     inkscape:current-layer="svg65"
     inkscape:window-maximized="0"
     inkscape:window-y="23"
     inkscape:window-x="0"
     inkscape:cy="397.20007"
     inkscape:cx="357.07436"
     inkscape:zoom="0.35"
     fit-margin-bottom="0"
     fit-margin-right="0"
     fit-margin-left="0"
     fit-margin-top="0"
     showgrid="false"
     id="namedview67"
     inkscape:window-height="907"
     inkscape:window-width="1600"
     inkscape:pageshadow="2"
     inkscape:pageopacity="0"
     guidetolerance="10"
     gridtolerance="10"
     objecttolerance="10"
     borderopacity="1"
     inkscape:document-rotation="0"
     bordercolor="#666666"
     pagecolor="#ffffff" />
  <clipPath
     id="p.0">
    <path
       inkscape:connector-curvature="0"
       id="path10"
       clip-rule="nonzero"
       d="M 0,0 H 960 V 540 H 0 Z" />
  </clipPath>
  <g
     transform="translate(-42.925638,-162.79993)"
     id="g63"
     clip-path="url(#p.0)">
    <path
       inkscape:connector-curvature="0"
       id="path13"
       fill-rule="evenodd"
       d="m 42.92564,270.0009 v 0 c 0,-59.20548 48.672405,-107.20097 108.71286,-107.20097 v 0 c 28.83244,0 56.48399,11.29434 76.87161,31.39844 20.38762,20.10408 31.84126,47.37106 31.84126,75.80253 v 0 c 0,59.20545 -48.67241,107.20096 -108.71287,107.20096 v 0 c -60.040462,0 -108.712862,-47.99551 -108.712862,-107.20096 z"
       fill="#69acdf" />
    <path
       inkscape:connector-curvature="0"
       id="path15"
       fill-rule="evenodd"
       d="m 42.92564,270.0009 v 0 c 0,-59.20548 48.672405,-107.20097 108.71286,-107.20097 v 0 c 28.83244,0 56.48399,11.29434 76.87161,31.39844 20.38762,20.10408 31.84126,47.37106 31.84126,75.80253 v 0 c 0,59.20545 -48.67241,107.20096 -108.71287,107.20096 v 0 c -60.040462,0 -108.712862,-47.99551 -108.712862,-107.20096 z"
       stroke-linecap="butt"
       stroke-linejoin="round"
       stroke-width="1.0"
       stroke="#69acdf" />
    <path
       inkscape:connector-curvature="0"
       id="path17"
       fill-rule="nonzero"
       d="m 86.22268,277.48087 v -15.26563 h 5.734375 q 1.75,0 2.796875,0.46875 1.0625,0.45313 1.65625,1.42188 0.59375,0.96875 0.59375,2.01562 0,0.96875 -0.53125,1.84375 -0.53125,0.85938 -1.59375,1.39063 1.375,0.40625 2.125,1.39062 0.75,0.96875 0.75,2.3125 0,1.0625 -0.453125,1.98438 -0.453125,0.92187 -1.125,1.42187 -0.671875,0.5 -1.671875,0.76563 -1,0.25 -2.453125,0.25 z m 2.015625,-8.85938 h 3.3125 q 1.34375,0 1.921875,-0.17187 0.765625,-0.23438 1.15625,-0.76563 0.390625,-0.53125 0.390625,-1.32812 0,-0.75 -0.359375,-1.32813 -0.359375,-0.57812 -1.046875,-0.79687 -0.671875,-0.21875 -2.3125,-0.21875 h -3.0625 z m 0,7.0625 h 3.8125 q 0.96875,0 1.375,-0.0781 0.6875,-0.125 1.15625,-0.40625 0.46875,-0.29688 0.765625,-0.85938 0.3125,-0.5625 0.3125,-1.28125 0,-0.85937 -0.4375,-1.48437 -0.4375,-0.64063 -1.21875,-0.89063 -0.765625,-0.25 -2.234375,-0.25 h -3.53125 z m 19.272565,0.4375 q -1.04687,0.875 -2.01562,1.25 -0.95313,0.35938 -2.0625,0.35938 -1.8125,0 -2.79688,-0.89063 -0.984372,-0.89062 -0.984372,-2.28125 0,-0.8125 0.375002,-1.48437 0.375,-0.67188 0.96875,-1.07813 0.59375,-0.40625 1.34375,-0.60937 0.5625,-0.14063 1.67187,-0.28125 2.26563,-0.26563 3.34375,-0.64063 0.0156,-0.39062 0.0156,-0.5 0,-1.14062 -0.53125,-1.60937 -0.71875,-0.64063 -2.14063,-0.64063 -1.32812,0 -1.95312,0.46875 -0.625,0.46875 -0.9375,1.64063 l -1.828127,-0.25 q 0.249997,-1.17188 0.812497,-1.89063 0.57813,-0.73437 1.65625,-1.125 1.09375,-0.39062 2.51563,-0.39062 1.42187,0 2.29687,0.34375 0.89063,0.32812 1.3125,0.82812 0.42188,0.5 0.57813,1.28125 0.0937,0.46875 0.0937,1.71875 v 2.5 q 0,2.625 0.125,3.3125 0.125,0.6875 0.46875,1.32813 h -1.95313 q -0.29687,-0.57813 -0.375,-1.35938 z m -0.15625,-4.1875 q -1.01562,0.40625 -3.0625,0.70313 -1.15625,0.17187 -1.64062,0.375 -0.46875,0.20312 -0.73438,0.60937 -0.26562,0.40625 -0.26562,0.89063 0,0.75 0.5625,1.25 0.57812,0.5 1.67187,0.5 1.07813,0 1.92188,-0.46875 0.84375,-0.48438 1.25,-1.29688 0.29687,-0.64062 0.29687,-1.875 z m 4.0492,2.25 1.85937,-0.29687 q 0.15625,1.10937 0.85938,1.70312 0.71875,0.59375 2,0.59375 1.29687,0 1.92187,-0.51562 0.625,-0.53125 0.625,-1.23438 0,-0.64062 -0.5625,-1 -0.375,-0.25 -1.90625,-0.64062 -2.0625,-0.51563 -2.85937,-0.89063 -0.79688,-0.39062 -1.21875,-1.0625 -0.40625,-0.67187 -0.40625,-1.48437 0,-0.73438 0.32812,-1.35938 0.34375,-0.64062 0.9375,-1.0625 0.4375,-0.3125 1.1875,-0.53125 0.75,-0.23437 1.625,-0.23437 1.29688,0 2.28125,0.375 0.98438,0.375 1.45313,1.01562 0.46875,0.64063 0.64062,1.71875 l -1.82812,0.25 q -0.125,-0.85937 -0.73438,-1.32812 -0.59375,-0.48438 -1.6875,-0.48438 -1.28125,0 -1.84375,0.42188 -0.54687,0.42187 -0.54687,1 0,0.35937 0.23437,0.65625 0.21875,0.29687 0.71875,0.5 0.28125,0.10937 1.65625,0.48437 1.98438,0.53125 2.76563,0.875 0.79687,0.32813 1.23437,0.98438 0.45313,0.64062 0.45313,1.59375 0,0.9375 -0.54688,1.76562 -0.54687,0.82813 -1.57812,1.28125 -1.03125,0.45313 -2.32813,0.45313 -2.15625,0 -3.29687,-0.89063 -1.125,-0.90625 -1.4375,-2.65625 z m 11.42968,-9.8125 v -2.15625 h 1.875 v 2.15625 z m 0,13.10938 v -11.0625 h 1.875 v 11.0625 z m 11.94157,-4.04688 1.84375,0.23438 q -0.29687,1.90625 -1.54687,2.98437 -1.25,1.07813 -3.0625,1.07813 -2.26563,0 -3.65625,-1.48438 -1.37501,-1.48437 -1.37501,-4.25 0,-1.79687 0.59375,-3.14062 0.59376,-1.34375 1.81251,-2.01563 1.21875,-0.67187 2.64062,-0.67187 1.79688,0 2.9375,0.92187 1.15625,0.90625 1.48438,2.57813 l -1.82813,0.28125 q -0.26562,-1.10938 -0.92187,-1.67188 -0.65625,-0.5625 -1.59375,-0.5625 -1.42188,0 -2.3125,1.01563 -0.875,1.01562 -0.875,3.20312 0,2.23438 0.84375,3.25 0.85937,1 2.23437,1 1.10938,0 1.84375,-0.67187 0.73438,-0.67188 0.9375,-2.07813 z m 13.11054,4.04688 v -13.46875 h -5.03125 v -1.79688 h 12.09375 v 1.79688 h -5.04688 v 13.46875 z m 8.09577,0 v -11.0625 h 1.6875 v 1.67187 q 0.64063,-1.17187 1.1875,-1.54687 0.54688,-0.375 1.20313,-0.375 0.95312,0 1.92187,0.60937 l -0.64062,1.73438 q -0.6875,-0.40625 -1.375,-0.40625 -0.60938,0 -1.10938,0.375 -0.48437,0.35937 -0.6875,1.01562 -0.3125,1 -0.3125,2.1875 v 5.79688 z m 14.33681,-1.35938 q -1.04687,0.875 -2.01562,1.25 -0.95313,0.35938 -2.0625,0.35938 -1.8125,0 -2.79688,-0.89063 -0.98437,-0.89062 -0.98437,-2.28125 0,-0.8125 0.375,-1.48437 0.375,-0.67188 0.96875,-1.07813 0.59375,-0.40625 1.34375,-0.60937 0.5625,-0.14063 1.67187,-0.28125 2.26563,-0.26563 3.34375,-0.64063 0.0156,-0.39062 0.0156,-0.5 0,-1.14062 -0.53125,-1.60937 -0.71875,-0.64063 -2.14063,-0.64063 -1.32812,0 -1.95312,0.46875 -0.625,0.46875 -0.9375,1.64063 l -1.82813,-0.25 q 0.25,-1.17188 0.8125,-1.89063 0.57813,-0.73437 1.65625,-1.125 1.09375,-0.39062 2.51563,-0.39062 1.42187,0 2.29687,0.34375 0.89063,0.32812 1.3125,0.82812 0.42188,0.5 0.57813,1.28125 0.0937,0.46875 0.0937,1.71875 v 2.5 q 0,2.625 0.125,3.3125 0.125,0.6875 0.46875,1.32813 h -1.95313 q -0.29687,-0.57813 -0.375,-1.35938 z m -0.15625,-4.1875 q -1.01562,0.40625 -3.0625,0.70313 -1.15625,0.17187 -1.64062,0.375 -0.46875,0.20312 -0.73438,0.60937 -0.26562,0.40625 -0.26562,0.89063 0,0.75 0.5625,1.25 0.57812,0.5 1.67187,0.5 1.07813,0 1.92188,-0.46875 0.84375,-0.48438 1.25,-1.29688 0.29687,-0.64062 0.29687,-1.875 z m 4.81482,-7.5625 v -2.15625 h 1.875 v 2.15625 z m 0,13.10938 v -11.0625 h 1.875 v 11.0625 z m 4.72281,0 v -11.0625 h 1.6875 v 1.57812 q 1.21875,-1.82812 3.51563,-1.82812 1,0 1.84375,0.35937 0.84375,0.35938 1.25,0.95313 0.42187,0.57812 0.59375,1.375 0.0937,0.51562 0.0937,1.82812 v 6.79688 h -1.875 v -6.73438 q 0,-1.14062 -0.21875,-1.70312 -0.21875,-0.57813 -0.78125,-0.90625 -0.54688,-0.34375 -1.29688,-0.34375 -1.20312,0 -2.07812,0.76562 -0.85938,0.75 -0.85938,2.875 v 6.04688 z m 11.87732,-13.10938 v -2.15625 h 1.875 v 2.15625 z m 0,13.10938 v -11.0625 h 1.875 v 11.0625 z m 4.72281,0 v -11.0625 h 1.6875 v 1.57812 q 1.21875,-1.82812 3.51562,-1.82812 1,0 1.84375,0.35937 0.84375,0.35938 1.25,0.95313 0.42188,0.57812 0.59375,1.375 0.0937,0.51562 0.0937,1.82812 v 6.79688 h -1.875 v -6.73438 q 0,-1.14062 -0.21875,-1.70312 -0.21875,-0.57813 -0.78125,-0.90625 -0.54687,-0.34375 -1.29687,-0.34375 -1.20313,0 -2.07813,0.76562 -0.85937,0.75 -0.85937,2.875 v 6.04688 z m 11.51794,0.92187 1.82813,0.26563 q 0.10937,0.84375 0.625,1.23437 0.70312,0.51563 1.90625,0.51563 1.3125,0 2.01562,-0.53125 0.70313,-0.51563 0.95313,-1.45313 0.15625,-0.5625 0.14062,-2.40625 -1.23437,1.45313 -3.0625,1.45313 -2.28125,0 -3.53125,-1.64063 -1.25,-1.65625 -1.25,-3.95312 0,-1.57813 0.5625,-2.92188 0.57813,-1.34375 1.67188,-2.0625 1.09375,-0.73437 2.5625,-0.73437 1.95312,0 3.21875,1.57812 v -1.32812 h 1.73437 v 9.5625 q 0,2.57812 -0.53125,3.65625 -0.51562,1.07812 -1.65625,1.70312 -1.14062,0.625 -2.8125,0.625 -1.98437,0 -3.20312,-0.89062 -1.21875,-0.89063 -1.17188,-2.67188 z m 1.54688,-6.65625 q 0,2.1875 0.85937,3.1875 0.875,1 2.17188,1 1.29687,0 2.17187,-1 0.875,-1 0.875,-3.125 0,-2.03125 -0.90625,-3.0625 -0.89062,-1.03125 -2.17187,-1.03125 -1.25,0 -2.125,1.01563 -0.875,1.01562 -0.875,3.01562 z"
       fill="#ffffff" />
    <path
       inkscape:connector-curvature="0"
       id="path19"
       fill-rule="evenodd"
       d="m 58.424526,193.29225 v 0 c 0,-16.31563 13.226429,-29.54205 29.542065,-29.54205 v 0 c 7.835037,0 15.349179,3.11245 20.889389,8.65266 5.54021,5.54021 8.65267,13.05435 8.65267,20.88939 v 0 c 0,16.31563 -13.22643,29.54207 -29.542058,29.54207 v 0 c -16.315636,0 -29.542065,-13.22644 -29.542066,-29.54207 z"
       fill="#ffffff" />
    <path
       inkscape:connector-curvature="0"
       id="path21"
       fill-rule="evenodd"
       d="m 58.424526,193.29225 v 0 c 0,-16.31563 13.226429,-29.54205 29.542065,-29.54205 v 0 c 7.835037,0 15.349179,3.11245 20.889389,8.65266 5.54021,5.54021 8.65267,13.05435 8.65267,20.88939 v 0 c 0,16.31563 -13.22643,29.54207 -29.542058,29.54207 v 0 c -16.315636,0 -29.542065,-13.22644 -29.542066,-29.54207 z"
       stroke-linecap="butt"
       stroke-linejoin="round"
       stroke-width="1.0"
       stroke="#69acdf" />
    <path
       inkscape:connector-curvature="0"
       id="path23"
       fill-rule="nonzero"
       d="m 89.17753,199.15225 h -1.453125 v -9.64063 l -2.921875,1.07813 v -1.3125 l 4.140625,-1.5625 h 0.234375 z"
       fill="#000000" />
    <path
       inkscape:connector-curvature="0"
       id="path25"
       fill-rule="evenodd"
       d="m 379.369,270.00107 v 0 c 0,-59.20546 48.67239,-107.20097 108.71286,-107.20097 v 0 c 28.83246,0 56.48401,11.29436 76.87158,31.39844 20.38763,20.10408 31.84131,47.37106 31.84131,75.80253 v 0 c 0,59.20545 -48.67242,107.20096 -108.71289,107.20096 v 0 c -60.04047,0 -108.71286,-47.99551 -108.71286,-107.20096 z"
       fill="#ffffff" />
    <path
       inkscape:connector-curvature="0"
       id="path27"
       fill-rule="evenodd"
       d="m 379.369,270.00107 v 0 c 0,-59.20546 48.67239,-107.20097 108.71286,-107.20097 v 0 c 28.83246,0 56.48401,11.29436 76.87158,31.39844 20.38763,20.10408 31.84131,47.37106 31.84131,75.80253 v 0 c 0,59.20545 -48.67242,107.20096 -108.71289,107.20096 v 0 c -60.04047,0 -108.71286,-47.99551 -108.71286,-107.20096 z"
       stroke-linecap="butt"
       stroke-linejoin="round"
       stroke-width="1.0"
       stroke="#69acdf" />
    <path
       inkscape:connector-curvature="0"
       id="path29"
       fill-rule="nonzero"
       d="m 460.12204,219.49669 v -1.79688 l 6.45313,-0.0156 v 5.67187 q -1.48438,1.1875 -3.0625,1.79688 -1.57813,0.59375 -3.25,0.59375 -2.25,0 -4.09375,-0.96875 -1.82813,-0.96875 -2.76563,-2.78125 -0.9375,-1.82813 -0.9375,-4.07813 0,-2.23437 0.92188,-4.15625 0.9375,-1.9375 2.6875,-2.875 1.75,-0.9375 4.03125,-0.9375 1.65625,0 2.98437,0.54688 1.34375,0.53125 2.09375,1.5 0.76563,0.95312 1.17188,2.48437 l -1.82813,0.5 q -0.34375,-1.15625 -0.85937,-1.82812 -0.5,-0.67188 -1.45313,-1.0625 -0.9375,-0.40625 -2.09375,-0.40625 -1.39062,0 -2.40625,0.42187 -1,0.42188 -1.625,1.10938 -0.625,0.6875 -0.96875,1.51562 -0.57812,1.40625 -0.57812,3.0625 0,2.04688 0.70312,3.42188 0.70313,1.375 2.04688,2.04687 1.34375,0.65625 2.85937,0.65625 1.3125,0 2.54688,-0.5 1.25,-0.51562 1.90625,-1.07812 v -2.84375 z m 16.41785,4.625 q -1.04688,0.875 -2.01563,1.25 -0.95312,0.35937 -2.0625,0.35937 -1.8125,0 -2.79687,-0.89062 -0.98438,-0.89063 -0.98438,-2.28125 0,-0.8125 0.375,-1.48438 0.375,-0.67187 0.96875,-1.07812 0.59375,-0.40625 1.34375,-0.60938 0.5625,-0.14062 1.67188,-0.28125 2.26562,-0.26562 3.34375,-0.64062 0.0156,-0.39063 0.0156,-0.5 0,-1.14063 -0.53125,-1.60938 -0.71875,-0.64062 -2.14062,-0.64062 -1.32813,0 -1.95313,0.46875 -0.625,0.46875 -0.9375,1.64062 l -1.82812,-0.25 q 0.25,-1.17187 0.8125,-1.89062 0.57812,-0.73438 1.65625,-1.125 1.09375,-0.39063 2.51562,-0.39063 1.42188,0 2.29688,0.34375 0.89062,0.32813 1.3125,0.82813 0.42187,0.5 0.57812,1.28125 0.0937,0.46875 0.0937,1.71875 v 2.5 q 0,2.625 0.125,3.3125 0.125,0.6875 0.46875,1.32812 h -1.95312 q -0.29688,-0.57812 -0.375,-1.35937 z m -0.15625,-4.1875 q -1.01563,0.40625 -3.0625,0.70312 -1.15625,0.17188 -1.64063,0.375 -0.46875,0.20313 -0.73437,0.60938 -0.26563,0.40625 -0.26563,0.89062 0,0.75 0.5625,1.25 0.57813,0.5 1.67188,0.5 1.07812,0 1.92187,-0.46875 0.84375,-0.48437 1.25,-1.29687 0.29688,-0.64063 0.29688,-1.875 z m 4.81482,-7.5625 v -2.15625 h 1.875 v 2.15625 z m 0,13.10937 v -11.0625 h 1.875 v 11.0625 z m 4.72281,0 v -11.0625 h 1.6875 v 1.57813 q 1.21875,-1.82813 3.51562,-1.82813 1,0 1.84375,0.35938 0.84375,0.35937 1.25,0.95312 0.42188,0.57813 0.59375,1.375 0.0937,0.51563 0.0937,1.82813 v 6.79687 h -1.875 v -6.73437 q 0,-1.14063 -0.21875,-1.70313 -0.21875,-0.57812 -0.78125,-0.90625 -0.54687,-0.34375 -1.29687,-0.34375 -1.20313,0 -2.07813,0.76563 -0.85937,0.75 -0.85937,2.875 v 6.04687 z m 11.87731,-13.10937 v -2.15625 h 1.875 v 2.15625 z m 0,13.10937 v -11.0625 h 1.875 v 11.0625 z m 4.72281,0 v -11.0625 h 1.6875 v 1.57813 q 1.21875,-1.82813 3.51563,-1.82813 1,0 1.84375,0.35938 0.84375,0.35937 1.25,0.95312 0.42187,0.57813 0.59375,1.375 0.0937,0.51563 0.0937,1.82813 v 6.79687 h -1.875 v -6.73437 q 0,-1.14063 -0.21875,-1.70313 -0.21875,-0.57812 -0.78125,-0.90625 -0.54688,-0.34375 -1.29688,-0.34375 -1.20312,0 -2.07812,0.76563 -0.85938,0.75 -0.85938,2.875 v 6.04687 z m 11.51792,0.92188 1.82812,0.26562 q 0.10938,0.84375 0.625,1.23438 0.70313,0.51562 1.90625,0.51562 1.3125,0 2.01563,-0.53125 0.70312,-0.51562 0.95312,-1.45312 0.15625,-0.5625 0.14063,-2.40625 -1.23438,1.45312 -3.0625,1.45312 -2.28125,0 -3.53125,-1.64062 -1.25,-1.65625 -1.25,-3.95313 0,-1.57812 0.5625,-2.92187 0.57812,-1.34375 1.67187,-2.0625 1.09375,-0.73438 2.5625,-0.73438 1.95313,0 3.21875,1.57813 v -1.32813 h 1.73438 v 9.5625 q 0,2.57813 -0.53125,3.65625 -0.51563,1.07813 -1.65625,1.70313 -1.14063,0.625 -2.8125,0.625 -1.98438,0 -3.20313,-0.89063 -1.21875,-0.89062 -1.17187,-2.67187 z m 1.54687,-6.65625 q 0,2.1875 0.85938,3.1875 0.875,1 2.17187,1 1.29688,0 2.17188,-1 0.875,-1 0.875,-3.125 0,-2.03125 -0.90625,-3.0625 -0.89063,-1.03125 -2.17188,-1.03125 -1.25,0 -2.125,1.01562 -0.875,1.01563 -0.875,3.01563 z"
       fill="#69acdf" />
    <path
       inkscape:connector-curvature="0"
       id="path31"
       fill-rule="nonzero"
       d="m 449.77902,255.71544 v -15.29688 h 1.70312 v 1.4375 q 0.60938,-0.84375 1.35938,-1.26562 0.76562,-0.42188 1.85937,-0.42188 1.40625,0 2.48438,0.73438 1.09375,0.71875 1.64062,2.04687 0.54688,1.32813 0.54688,2.92188 0,1.6875 -0.60938,3.04687 -0.59375,1.35938 -1.76562,2.09375 -1.15625,0.71875 -2.4375,0.71875 -0.9375,0 -1.6875,-0.39062 -0.73438,-0.40625 -1.21875,-1 v 5.375 z m 1.70312,-9.70313 q 0,2.14063 0.85938,3.15625 0.85937,1.01563 2.09375,1.01563 1.25,0 2.14062,-1.04688 0.89063,-1.0625 0.89063,-3.28125 0,-2.10937 -0.875,-3.15625 -0.85938,-1.0625 -2.07813,-1.0625 -1.1875,0 -2.10937,1.125 -0.92188,1.10938 -0.92188,3.25 z m 10.14295,5.46875 v -11.0625 h 1.6875 v 1.67188 q 0.64062,-1.17188 1.1875,-1.54688 0.54687,-0.375 1.20312,-0.375 0.95313,0 1.92188,0.60938 l -0.64063,1.73437 q -0.6875,-0.40625 -1.375,-0.40625 -0.60937,0 -1.10937,0.375 -0.48438,0.35938 -0.6875,1.01563 -0.3125,1 -0.3125,2.1875 v 5.79687 z m 14.33679,-1.35937 q -1.04687,0.875 -2.01562,1.25 -0.95313,0.35937 -2.0625,0.35937 -1.8125,0 -2.79688,-0.89062 -0.98437,-0.89063 -0.98437,-2.28125 0,-0.8125 0.375,-1.48438 0.375,-0.67187 0.96875,-1.07812 0.59375,-0.40625 1.34375,-0.60938 0.5625,-0.14062 1.67187,-0.28125 2.26563,-0.26562 3.34375,-0.64062 0.0156,-0.39063 0.0156,-0.5 0,-1.14063 -0.53125,-1.60938 -0.71875,-0.64062 -2.14063,-0.64062 -1.32812,0 -1.95312,0.46875 -0.625,0.46875 -0.9375,1.64062 l -1.82813,-0.25 q 0.25,-1.17187 0.8125,-1.89062 0.57813,-0.73438 1.65625,-1.125 1.09375,-0.39063 2.51563,-0.39063 1.42187,0 2.29687,0.34375 0.89063,0.32813 1.3125,0.82813 0.42188,0.5 0.57813,1.28125 0.0937,0.46875 0.0937,1.71875 v 2.5 q 0,2.625 0.125,3.3125 0.125,0.6875 0.46875,1.32812 h -1.95313 q -0.29687,-0.57812 -0.375,-1.35937 z m -0.15625,-4.1875 q -1.01562,0.40625 -3.0625,0.70312 -1.15625,0.17188 -1.64062,0.375 -0.46875,0.20313 -0.73438,0.60938 -0.26562,0.40625 -0.26562,0.89062 0,0.75 0.5625,1.25 0.57812,0.5 1.67187,0.5 1.07813,0 1.92188,-0.46875 0.84375,-0.48437 1.25,-1.29687 0.29687,-0.64063 0.29687,-1.875 z m 12.01794,1.5 1.84375,0.23437 q -0.29687,1.90625 -1.54687,2.98438 -1.25,1.07812 -3.0625,1.07812 -2.26563,0 -3.65625,-1.48437 -1.375,-1.48438 -1.375,-4.25 0,-1.79688 0.59375,-3.14063 0.59375,-1.34375 1.8125,-2.01562 1.21875,-0.67188 2.64062,-0.67188 1.79688,0 2.9375,0.92188 1.15625,0.90625 1.48438,2.57812 l -1.82813,0.28125 q -0.26562,-1.10937 -0.92187,-1.67187 -0.65625,-0.5625 -1.59375,-0.5625 -1.42188,0 -2.3125,1.01562 -0.875,1.01563 -0.875,3.20313 0,2.23437 0.84375,3.25 0.85937,1 2.23437,1 1.10938,0 1.84375,-0.67188 0.73438,-0.67187 0.9375,-2.07812 z m 7.53907,2.375 0.26562,1.65625 q -0.78125,0.15625 -1.40625,0.15625 -1.03125,0 -1.59375,-0.3125 -0.5625,-0.32813 -0.79687,-0.84375 -0.21875,-0.53125 -0.21875,-2.21875 v -6.375 h -1.375 v -1.45313 h 1.375 v -2.73437 l 1.85937,-1.125 v 3.85937 h 1.89063 v 1.45313 h -1.89063 v 6.46875 q 0,0.8125 0.0937,1.04687 0.10938,0.21875 0.32813,0.35938 0.23437,0.125 0.64062,0.125 0.3125,0 0.82813,-0.0625 z m 1.84753,-11.4375 v -2.15625 h 1.875 v 2.15625 z m 0,13.10937 v -11.0625 h 1.875 v 11.0625 z m 11.94156,-4.04687 1.84375,0.23437 q -0.29687,1.90625 -1.54687,2.98438 -1.25,1.07812 -3.0625,1.07812 -2.26563,0 -3.65625,-1.48437 -1.375,-1.48438 -1.375,-4.25 0,-1.79688 0.59375,-3.14063 0.59375,-1.34375 1.8125,-2.01562 1.21875,-0.67188 2.64062,-0.67188 1.79688,0 2.9375,0.92188 1.15625,0.90625 1.48438,2.57812 l -1.82813,0.28125 q -0.26562,-1.10937 -0.92187,-1.67187 -0.65625,-0.5625 -1.59375,-0.5625 -1.42188,0 -2.3125,1.01562 -0.875,1.01563 -0.875,3.20313 0,2.23437 0.84375,3.25 0.85937,1 2.23437,1 1.10938,0 1.84375,-0.67188 0.73438,-0.67187 0.9375,-2.07812 z m 10.66406,2.6875 q -1.04687,0.875 -2.01562,1.25 -0.95313,0.35937 -2.0625,0.35937 -1.8125,0 -2.79688,-0.89062 -0.98437,-0.89063 -0.98437,-2.28125 0,-0.8125 0.375,-1.48438 0.375,-0.67187 0.96875,-1.07812 0.59375,-0.40625 1.34375,-0.60938 0.5625,-0.14062 1.67187,-0.28125 2.26563,-0.26562 3.34375,-0.64062 0.0156,-0.39063 0.0156,-0.5 0,-1.14063 -0.53125,-1.60938 -0.71875,-0.64062 -2.14063,-0.64062 -1.32812,0 -1.95312,0.46875 -0.625,0.46875 -0.9375,1.64062 l -1.82813,-0.25 q 0.25,-1.17187 0.8125,-1.89062 0.57813,-0.73438 1.65625,-1.125 1.09375,-0.39063 2.51563,-0.39063 1.42187,0 2.29687,0.34375 0.89063,0.32813 1.3125,0.82813 0.42188,0.5 0.57813,1.28125 0.0937,0.46875 0.0937,1.71875 v 2.5 q 0,2.625 0.125,3.3125 0.125,0.6875 0.46875,1.32812 h -1.95313 q -0.29687,-0.57812 -0.375,-1.35937 z m -0.15625,-4.1875 q -1.01562,0.40625 -3.0625,0.70312 -1.15625,0.17188 -1.64062,0.375 -0.46875,0.20313 -0.73438,0.60938 -0.26562,0.40625 -0.26562,0.89062 0,0.75 0.5625,1.25 0.57812,0.5 1.67187,0.5 1.07813,0 1.92188,-0.46875 0.84375,-0.48437 1.25,-1.29687 0.29687,-0.64063 0.29687,-1.875 z m 4.75232,5.54687 v -15.26562 h 1.875 v 15.26562 z"
       fill="#69acdf" />
    <path
       inkscape:connector-curvature="0"
       id="path33"
       fill-rule="nonzero"
       d="m 444.89664,273.91858 1.92187,0.23438 q -0.45312,1.70312 -1.6875,2.64062 -1.23437,0.9375 -3.17187,0.9375 -2.42188,0 -3.84375,-1.48437 -1.42188,-1.5 -1.42188,-4.20313 0,-2.79687 1.4375,-4.32812 1.4375,-1.54688 3.73438,-1.54688 2.21875,0 3.60937,1.51563 1.40625,1.5 1.40625,4.25 0,0.15625 0,0.5 h -8.25 q 0.10938,1.8125 1.03125,2.78125 0.92188,0.96875 2.3125,0.96875 1.03125,0 1.75,-0.53125 0.73438,-0.54688 1.17188,-1.73438 z m -6.15625,-3.03125 h 6.17187 q -0.125,-1.39062 -0.70312,-2.09375 -0.90625,-1.07812 -2.32813,-1.07812 -1.29687,0 -2.17187,0.85937 -0.875,0.85938 -0.96875,2.3125 z m 9.18982,6.59375 4.04687,-5.75 -3.75,-5.3125 h 2.34375 l 1.70313,2.59375 q 0.48437,0.73438 0.76562,1.23438 0.46875,-0.6875 0.84375,-1.21875 l 1.875,-2.60938 h 2.23438 l -3.82813,5.20313 4.125,5.85937 h -2.3125 l -2.26562,-3.4375 -0.60938,-0.92187 -2.90625,4.35937 z m 11.91406,4.23438 v -15.29688 h 1.70313 v 1.4375 q 0.60937,-0.84375 1.35937,-1.26562 0.76563,-0.42188 1.85938,-0.42188 1.40625,0 2.48437,0.73438 1.09375,0.71875 1.64063,2.04687 0.54687,1.32813 0.54687,2.92188 0,1.6875 -0.60937,3.04687 -0.59375,1.35938 -1.76563,2.09375 -1.15625,0.71875 -2.4375,0.71875 -0.9375,0 -1.6875,-0.39062 -0.73437,-0.40625 -1.21875,-1 v 5.375 z m 1.70313,-9.70313 q 0,2.14063 0.85937,3.15625 0.85938,1.01563 2.09375,1.01563 1.25,0 2.14063,-1.04688 0.89062,-1.0625 0.89062,-3.28125 0,-2.10937 -0.875,-3.15625 -0.85937,-1.0625 -2.07812,-1.0625 -1.1875,0 -2.10938,1.125 -0.92187,1.10938 -0.92187,3.25 z m 17.73669,1.90625 1.92188,0.23438 q -0.45313,1.70312 -1.6875,2.64062 -1.23438,0.9375 -3.17188,0.9375 -2.42187,0 -3.84375,-1.48437 -1.42187,-1.5 -1.42187,-4.20313 0,-2.79687 1.4375,-4.32812 1.4375,-1.54688 3.73437,-1.54688 2.21875,0 3.60938,1.51563 1.40625,1.5 1.40625,4.25 0,0.15625 0,0.5 h -8.25 q 0.10937,1.8125 1.03125,2.78125 0.92187,0.96875 2.3125,0.96875 1.03125,0 1.75,-0.53125 0.73437,-0.54688 1.17187,-1.73438 z m -6.15625,-3.03125 h 6.17188 q -0.125,-1.39062 -0.70313,-2.09375 -0.90625,-1.07812 -2.32812,-1.07812 -1.29688,0 -2.17188,0.85937 -0.875,0.85938 -0.96875,2.3125 z m 10.42419,6.59375 v -11.0625 h 1.6875 v 1.67188 q 0.64063,-1.17188 1.1875,-1.54688 0.54688,-0.375 1.20313,-0.375 0.95312,0 1.92187,0.60938 l -0.64062,1.73437 q -0.6875,-0.40625 -1.375,-0.40625 -0.60938,0 -1.10938,0.375 -0.48437,0.35938 -0.6875,1.01563 -0.3125,1 -0.3125,2.1875 v 5.79687 z m 7.1337,-13.10937 v -2.15625 h 1.875 v 2.15625 z m 0,13.10937 v -11.0625 h 1.875 v 11.0625 z m 12.30094,-3.5625 1.92187,0.23438 q -0.45312,1.70312 -1.6875,2.64062 -1.23437,0.9375 -3.17187,0.9375 -2.42188,0 -3.84375,-1.48437 -1.42188,-1.5 -1.42188,-4.20313 0,-2.79687 1.4375,-4.32812 1.4375,-1.54688 3.73438,-1.54688 2.21875,0 3.60937,1.51563 1.40625,1.5 1.40625,4.25 0,0.15625 0,0.5 h -8.25 q 0.10938,1.8125 1.03125,2.78125 0.92188,0.96875 2.3125,0.96875 1.03125,0 1.75,-0.53125 0.73438,-0.54688 1.17188,-1.73438 z m -6.15625,-3.03125 h 6.17187 q -0.125,-1.39062 -0.70312,-2.09375 -0.90625,-1.07812 -2.32813,-1.07812 -1.29687,0 -2.17187,0.85937 -0.875,0.85938 -0.96875,2.3125 z m 10.43981,6.59375 v -11.0625 h 1.6875 v 1.57813 q 1.21875,-1.82813 3.5156,-1.82813 1,0 1.84375,0.35938 0.84375,0.35937 1.25,0.95312 0.42187,0.57813 0.59375,1.375 0.0937,0.51563 0.0937,1.82813 v 6.79687 h -1.875 v -6.73437 q 0,-1.14063 -0.21875,-1.70313 -0.21875,-0.57812 -0.78125,-0.90625 -0.54688,-0.34375 -1.29688,-0.34375 -1.20309,0 -2.07809,0.76563 -0.85938,0.75 -0.85938,2.875 v 6.04687 z m 19.08042,-4.04687 1.84375,0.23437 q -0.29688,1.90625 -1.54688,2.98438 -1.25,1.07812 -3.0625,1.07812 -2.26562,0 -3.65625,-1.48437 -1.375,-1.48438 -1.375,-4.25 0,-1.79688 0.59375,-3.14063 0.59375,-1.34375 1.8125,-2.01562 1.21875,-0.67188 2.64063,-0.67188 1.79687,0 2.9375,0.92188 1.15625,0.90625 1.48437,2.57812 l -1.82812,0.28125 q -0.26563,-1.10937 -0.92188,-1.67187 -0.65625,-0.5625 -1.59375,-0.5625 -1.42187,0 -2.3125,1.01562 -0.875,1.01563 -0.875,3.20313 0,2.23437 0.84375,3.25 0.85938,1 2.23438,1 1.10937,0 1.84375,-0.67188 0.73437,-0.67187 0.9375,-2.07812 z m 11.02344,0.48437 1.92187,0.23438 q -0.45312,1.70312 -1.6875,2.64062 -1.23437,0.9375 -3.17187,0.9375 -2.42188,0 -3.84375,-1.48437 -1.42188,-1.5 -1.42188,-4.20313 0,-2.79687 1.4375,-4.32812 1.4375,-1.54688 3.73438,-1.54688 2.21875,0 3.60937,1.51563 1.40625,1.5 1.40625,4.25 0,0.15625 0,0.5 h -8.25 q 0.10938,1.8125 1.03125,2.78125 0.92188,0.96875 2.3125,0.96875 1.03125,0 1.75,-0.53125 0.73438,-0.54688 1.17188,-1.73438 z m -6.15625,-3.03125 h 6.17187 q -0.125,-1.39062 -0.70312,-2.09375 -0.90625,-1.07812 -2.32813,-1.07812 -1.29687,0 -2.17187,0.85937 -0.875,0.85938 -0.96875,2.3125 z"
       fill="#69acdf" />
    <path
       inkscape:connector-curvature="0"
       id="path35"
       fill-rule="nonzero"
       d="m 435.80896,303.48108 -3.39062,-11.0625 h 1.9375 l 1.76562,6.39063 0.65625,2.375 q 0.0312,-0.1875 0.5625,-2.28125 l 1.76563,-6.48438 h 1.92187 l 1.65625,6.42188 0.54688,2.10937 0.64062,-2.14062 1.89063,-6.39063 h 1.82812 l -3.45312,11.0625 h -1.95313 l -1.75,-6.625 -0.4375,-1.89062 -2.23437,8.51562 z m 13.37125,-13.10937 v -2.15625 h 1.875 v 2.15625 z m 0,13.10937 v -11.0625 h 1.875 v 11.0625 z m 8.81655,-1.67187 0.26563,1.65625 q -0.78125,0.15625 -1.40625,0.15625 -1.03125,0 -1.59375,-0.3125 -0.5625,-0.32813 -0.79688,-0.84375 -0.21875,-0.53125 -0.21875,-2.21875 v -6.375 h -1.375 v -1.45313 h 1.375 v -2.73437 l 1.85938,-1.125 v 3.85937 h 1.89062 v 1.45313 h -1.89062 v 6.46875 q 0,0.8125 0.0937,1.04687 0.10937,0.21875 0.32812,0.35938 0.23438,0.125 0.64063,0.125 0.3125,0 0.82812,-0.0625 z m 1.83188,1.67187 v -15.26562 h 1.875 v 5.46875 q 1.3125,-1.51563 3.3125,-1.51563 1.23438,0 2.14063,0.48438 0.90625,0.48437 1.29687,1.34375 0.39063,0.84375 0.39063,2.46875 v 7.01562 h -1.875 v -7.01562 q 0,-1.40625 -0.60938,-2.04688 -0.60937,-0.64062 -1.73437,-0.64062 -0.82813,0 -1.5625,0.4375 -0.73438,0.4375 -1.04688,1.17187 -0.3125,0.73438 -0.3125,2.04688 v 6.04687 z m 18.06861,0 v -15.26562 h 11.03125 v 1.79687 h -9.01563 v 4.67188 h 8.45313 v 1.79687 h -8.45313 v 5.20313 h 9.375 v 1.79687 z m 21.1163,0 v -1.39062 q -1.04688,1.64062 -3.09375,1.64062 -1.3125,0 -2.42188,-0.71875 -1.10937,-0.73437 -1.71875,-2.04687 -0.60937,-1.3125 -0.60937,-3 0,-1.65625 0.54687,-3 0.54688,-1.35938 1.65625,-2.07813 1.10938,-0.71875 2.46875,-0.71875 1,0 1.78125,0.42188 0.78125,0.42187 1.26563,1.09375 v -5.46875 h 1.875 v 15.26562 z m -5.92188,-5.51562 q 0,2.125 0.89063,3.17187 0.90625,1.04688 2.125,1.04688 1.21875,0 2.07812,-1 0.85938,-1 0.85938,-3.0625 0,-2.28125 -0.875,-3.34375 -0.875,-1.0625 -2.15625,-1.0625 -1.25,0 -2.09375,1.03125 -0.82813,1.01562 -0.82813,3.21875 z m 17.8617,5.51562 v -1.625 q -1.29688,1.875 -3.51563,1.875 -0.96875,0 -1.82812,-0.375 -0.84375,-0.375 -1.26563,-0.9375 -0.40625,-0.57812 -0.5625,-1.39062 -0.125,-0.5625 -0.125,-1.75 v -6.85938 h 1.875 v 6.14063 q 0,1.46875 0.125,1.96875 0.17188,0.75 0.73438,1.17187 0.57812,0.42188 1.42187,0.42188 0.84375,0 1.57813,-0.4375 0.75,-0.4375 1.04687,-1.17188 0.3125,-0.75 0.3125,-2.17187 v -5.92188 h 1.875 v 11.0625 z m 8.70544,-1.67187 0.26563,1.65625 q -0.78125,0.15625 -1.40625,0.15625 -1.03125,0 -1.59375,-0.3125 -0.5625,-0.32813 -0.79688,-0.84375 -0.21875,-0.53125 -0.21875,-2.21875 v -6.375 h -1.375 v -1.45313 h 1.375 v -2.73437 l 1.85938,-1.125 v 3.85937 h 1.89062 v 1.45313 h -1.89062 v 6.46875 q 0,0.8125 0.0937,1.04687 0.10937,0.21875 0.32812,0.35938 0.23438,0.125 0.64063,0.125 0.3125,0 0.82812,-0.0625 z m 9.41004,-1.89063 1.92187,0.23438 q -0.45312,1.70312 -1.6875,2.64062 -1.23437,0.9375 -3.17187,0.9375 -2.42188,0 -3.84375,-1.48437 -1.42188,-1.5 -1.42188,-4.20313 0,-2.79687 1.4375,-4.32812 1.4375,-1.54688 3.73438,-1.54688 2.21875,0 3.60937,1.51563 1.40625,1.5 1.40625,4.25 0,0.15625 0,0.5 h -8.25 q 0.10938,1.8125 1.03125,2.78125 0.92188,0.96875 2.3125,0.96875 1.03125,0 1.75,-0.53125 0.73438,-0.54688 1.17188,-1.73438 z m -6.15625,-3.03125 h 6.17187 q -0.125,-1.39062 -0.70312,-2.09375 -0.90625,-1.07812 -2.32813,-1.07812 -1.29687,0 -2.17187,0.85937 -0.875,0.85938 -0.96875,2.3125 z m 10.43982,6.59375 v -11.0625 h 1.6875 v 1.57813 q 1.21875,-1.82813 3.51562,-1.82813 1,0 1.84375,0.35938 0.84375,0.35937 1.25,0.95312 0.42188,0.57813 0.59375,1.375 0.0937,0.51563 0.0937,1.82813 v 6.79687 h -1.875 v -6.73437 q 0,-1.14063 -0.21875,-1.70313 -0.21875,-0.57812 -0.78125,-0.90625 -0.54687,-0.34375 -1.29687,-0.34375 -1.20313,0 -2.07813,0.76563 -0.85937,0.75 -0.85937,2.875 v 6.04687 z"
       fill="#69acdf" />
    <path
       inkscape:connector-curvature="0"
       id="path37"
       fill-rule="nonzero"
       d="m 435.77206,329.48108 v -15.26562 h 5.76562 q 1.51563,0 2.32813,0.14062 1.10937,0.1875 1.875,0.71875 0.76562,0.53125 1.21875,1.48438 0.46875,0.9375 0.46875,2.07812 0,1.9375 -1.25,3.29688 -1.23438,1.34375 -4.46875,1.34375 h -3.90625 v 6.20312 z m 2.03125,-8.01562 h 3.9375 q 1.96875,0 2.78125,-0.71875 0.82812,-0.73438 0.82812,-2.04688 0,-0.96875 -0.48437,-1.64062 -0.48438,-0.6875 -1.28125,-0.90625 -0.5,-0.14063 -1.875,-0.14063 h -3.90625 z m 11.91321,8.01562 v -15.26562 h 1.875 v 15.26562 z m 12.00406,-1.35937 q -1.04688,0.875 -2.01563,1.25 -0.95312,0.35937 -2.0625,0.35937 -1.8125,0 -2.79687,-0.89062 -0.98438,-0.89063 -0.98438,-2.28125 0,-0.8125 0.375,-1.48438 0.375,-0.67187 0.96875,-1.07812 0.59375,-0.40625 1.34375,-0.60938 0.5625,-0.14062 1.67188,-0.28125 2.26562,-0.26562 3.34375,-0.64062 0.0156,-0.39063 0.0156,-0.5 0,-1.14063 -0.53125,-1.60938 -0.71875,-0.64062 -2.14062,-0.64062 -1.32813,0 -1.95313,0.46875 -0.625,0.46875 -0.9375,1.64062 l -1.82812,-0.25 q 0.25,-1.17187 0.8125,-1.89062 0.57812,-0.73438 1.65625,-1.125 1.09375,-0.39063 2.51562,-0.39063 1.42188,0 2.29688,0.34375 0.89062,0.32813 1.3125,0.82813 0.42187,0.5 0.57812,1.28125 0.0937,0.46875 0.0937,1.71875 v 2.5 q 0,2.625 0.125,3.3125 0.125,0.6875 0.46875,1.32812 h -1.95312 q -0.29688,-0.57812 -0.375,-1.35937 z m -0.15625,-4.1875 q -1.01563,0.40625 -3.0625,0.70312 -1.15625,0.17188 -1.64063,0.375 -0.46875,0.20313 -0.73437,0.60938 -0.26563,0.40625 -0.26563,0.89062 0,0.75 0.5625,1.25 0.57813,0.5 1.67188,0.5 1.07812,0 1.92187,-0.46875 0.84375,-0.48437 1.25,-1.29687 0.29688,-0.64063 0.29688,-1.875 z m 4.72107,9.8125 -0.21875,-1.76563 q 0.625,0.17188 1.07812,0.17188 0.625,0 1,-0.21875 0.375,-0.20313 0.60938,-0.57813 0.1875,-0.28125 0.57812,-1.39062 0.0469,-0.15625 0.17188,-0.46875 l -4.20313,-11.07813 h 2.01563 l 2.3125,6.40625 q 0.4375,1.21875 0.79687,2.5625 0.32813,-1.29687 0.76563,-2.51562 l 2.375,-6.45313 h 1.875 l -4.21875,11.25 q -0.67188,1.82813 -1.04688,2.51563 -0.5,0.92187 -1.15625,1.34375 -0.64062,0.4375 -1.53125,0.4375 -0.54687,0 -1.20312,-0.21875 z m 10.39843,-3.34375 1.82813,0.26562 q 0.10937,0.84375 0.625,1.23438 0.70312,0.51562 1.90625,0.51562 1.3125,0 2.01562,-0.53125 0.70313,-0.51562 0.95313,-1.45312 0.15625,-0.5625 0.14062,-2.40625 -1.23437,1.45312 -3.0625,1.45312 -2.28125,0 -3.53125,-1.64062 -1.25,-1.65625 -1.25,-3.95313 0,-1.57812 0.5625,-2.92187 0.57813,-1.34375 1.67188,-2.0625 1.09375,-0.73438 2.5625,-0.73438 1.95312,0 3.21875,1.57813 v -1.32813 h 1.73437 v 9.5625 q 0,2.57813 -0.53125,3.65625 -0.51562,1.07813 -1.65625,1.70313 -1.14062,0.625 -2.8125,0.625 -1.98437,0 -3.20312,-0.89063 -1.21875,-0.89062 -1.17188,-2.67187 z m 1.54688,-6.65625 q 0,2.1875 0.85937,3.1875 0.875,1 2.17188,1 1.29687,0 2.17187,-1 0.875,-1 0.875,-3.125 0,-2.03125 -0.90625,-3.0625 -0.89062,-1.03125 -2.17187,-1.03125 -1.25,0 -2.125,1.01562 -0.875,1.01563 -0.875,3.01563 z m 10.64294,5.73437 v -11.0625 h 1.6875 v 1.67188 q 0.64063,-1.17188 1.1875,-1.54688 0.54688,-0.375 1.20313,-0.375 0.95312,0 1.92187,0.60938 l -0.64062,1.73437 q -0.6875,-0.40625 -1.375,-0.40625 -0.60938,0 -1.10938,0.375 -0.48437,0.35938 -0.6875,1.01563 -0.3125,1 -0.3125,2.1875 v 5.79687 z m 6.41492,-5.53125 q 0,-3.07812 1.71875,-4.54687 1.42187,-1.23438 3.46875,-1.23438 2.28125,0 3.71875,1.5 1.45312,1.48438 1.45312,4.125 0,2.14063 -0.64062,3.35938 -0.625,1.21875 -1.85938,1.90625 -1.21875,0.67187 -2.67187,0.67187 -2.3125,0 -3.75,-1.48437 -1.4375,-1.5 -1.4375,-4.29688 z m 1.9375,0 q 0,2.125 0.92187,3.1875 0.92188,1.04688 2.32813,1.04688 1.40625,0 2.32812,-1.0625 0.92188,-1.0625 0.92188,-3.23438 0,-2.04687 -0.9375,-3.10937 -0.92188,-1.0625 -2.3125,-1.0625 -1.40625,0 -2.32813,1.0625 -0.92187,1.04687 -0.92187,3.17187 z m 17.87732,5.53125 v -1.625 q -1.29688,1.875 -3.51563,1.875 -0.96875,0 -1.82812,-0.375 -0.84375,-0.375 -1.26563,-0.9375 -0.40625,-0.57812 -0.5625,-1.39062 -0.125,-0.5625 -0.125,-1.75 v -6.85938 h 1.875 v 6.14063 q 0,1.46875 0.125,1.96875 0.17188,0.75 0.73438,1.17187 0.57812,0.42188 1.42187,0.42188 0.84375,0 1.57813,-0.4375 0.75,-0.4375 1.04687,-1.17188 0.3125,-0.75 0.3125,-2.17187 v -5.92188 h 1.875 v 11.0625 z m 4.61169,0 v -11.0625 h 1.6875 v 1.57813 q 1.21875,-1.82813 3.51563,-1.82813 1,0 1.84375,0.35938 0.84375,0.35937 1.25,0.95312 0.42187,0.57813 0.59375,1.375 0.0937,0.51563 0.0937,1.82813 v 6.79687 h -1.875 v -6.73437 q 0,-1.14063 -0.21875,-1.70313 -0.21875,-0.57812 -0.78125,-0.90625 -0.54688,-0.34375 -1.29688,-0.34375 -1.20312,0 -2.07812,0.76563 -0.85938,0.75 -0.85938,2.875 v 6.04687 z m 19.03357,0 v -1.39062 q -1.04687,1.64062 -3.09375,1.64062 -1.3125,0 -2.42187,-0.71875 -1.10938,-0.73437 -1.71875,-2.04687 -0.60938,-1.3125 -0.60938,-3 0,-1.65625 0.54688,-3 0.54687,-1.35938 1.65625,-2.07813 1.10937,-0.71875 2.46875,-0.71875 1,0 1.78125,0.42188 0.78125,0.42187 1.26562,1.09375 v -5.46875 h 1.875 v 15.26562 z m -5.92187,-5.51562 q 0,2.125 0.89062,3.17187 0.90625,1.04688 2.125,1.04688 1.21875,0 2.07813,-1 0.85937,-1 0.85937,-3.0625 0,-2.28125 -0.875,-3.34375 -0.875,-1.0625 -2.15625,-1.0625 -1.25,0 -2.09375,1.03125 -0.82812,1.01562 -0.82812,3.21875 z"
       fill="#69acdf" />
    <path
       inkscape:connector-curvature="0"
       id="path39"
       fill-rule="evenodd"
       d="m 384.74847,197.8358 v 0 c 0,-16.31563 13.22641,-29.54205 29.54205,-29.54205 v 0 c 7.83506,0 15.34918,3.11245 20.88941,8.65266 5.54019,5.54021 8.65265,13.05435 8.65265,20.88939 v 0 c 0,16.31563 -13.22641,29.54207 -29.54206,29.54207 v 0 c -16.31564,0 -29.54205,-13.22644 -29.54205,-29.54207 z"
       fill="#ffffff" />
    <path
       inkscape:connector-curvature="0"
       id="path41"
       fill-rule="evenodd"
       d="m 384.74847,197.8358 v 0 c 0,-16.31563 13.22641,-29.54205 29.54205,-29.54205 v 0 c 7.83506,0 15.34918,3.11245 20.88941,8.65266 5.54019,5.54021 8.65265,13.05435 8.65265,20.88939 v 0 c 0,16.31563 -13.22641,29.54207 -29.54206,29.54207 v 0 c -16.31564,0 -29.54205,-13.22644 -29.54205,-29.54207 z"
       stroke-linecap="butt"
       stroke-linejoin="round"
       stroke-width="1.0"
       stroke="#69acdf" />
    <path
       inkscape:connector-curvature="0"
       id="path43"
       fill-rule="nonzero"
       d="m 418.2046,203.6958 h -7.45312 v -1.04688 l 3.9375,-4.375 q 0.875,-0.98437 1.20312,-1.60937 0.32813,-0.625 0.32813,-1.28125 0,-0.89063 -0.54688,-1.45313 -0.53125,-0.57812 -1.42187,-0.57812 -1.07813,0 -1.6875,0.60937 -0.59375,0.60938 -0.59375,1.70313 h -1.4375 q 0,-1.5625 1,-2.53125 1.01562,-0.96875 2.71875,-0.96875 1.57812,0 2.5,0.82812 0.92187,0.82813 0.92187,2.21875 0,1.67188 -2.14062,4 l -3.04688,3.29688 h 5.71875 z"
       fill="#000000" />
    <path
       inkscape:connector-curvature="0"
       id="path45"
       fill-rule="evenodd"
       d="m 699.64923,270.00107 v 0 c 0,-59.20546 48.67242,-107.20097 108.71289,-107.20097 v 0 c 28.83246,0 56.48395,11.29436 76.87158,31.39844 20.38763,20.10408 31.84125,47.37106 31.84125,75.80253 v 0 c 0,59.20545 -48.67237,107.20096 -108.71283,107.20096 v 0 c -60.04047,0 -108.71289,-47.99551 -108.71289,-107.20096 z"
       fill="#69acdf" />
    <path
       inkscape:connector-curvature="0"
       id="path47"
       fill-rule="evenodd"
       d="m 699.64923,270.00107 v 0 c 0,-59.20546 48.67242,-107.20097 108.71289,-107.20097 v 0 c 28.83246,0 56.48395,11.29436 76.87158,31.39844 20.38763,20.10408 31.84125,47.37106 31.84125,75.80253 v 0 c 0,59.20545 -48.67237,107.20096 -108.71283,107.20096 v 0 c -60.04047,0 -108.71289,-47.99551 -108.71289,-107.20096 z"
       stroke-linecap="butt"
       stroke-linejoin="round"
       stroke-width="1.0"
       stroke="#69acdf" />
    <path
       inkscape:connector-curvature="0"
       id="path49"
       fill-rule="nonzero"
       d="m 760.8997,264.48108 5.85938,-15.26564 h 2.1875 l 6.23437,15.26564 h -2.29687 l -1.78125,-4.625 h -6.375 l -1.6875,4.625 z m 4.40625,-6.26562 h 5.17188 l -1.59375,-4.2344 q -0.71875,-1.92187 -1.07813,-3.15625 -0.29687,1.46875 -0.82812,2.90625 z m 18.42883,6.26562 v -1.39062 q -1.04687,1.64062 -3.09375,1.64062 -1.3125,0 -2.42187,-0.71875 -1.10938,-0.73437 -1.71875,-2.04687 -0.60938,-1.3125 -0.60938,-3 0,-1.65625 0.54688,-3.00002 0.54687,-1.35938 1.65625,-2.07813 1.10937,-0.71875 2.46875,-0.71875 1,0 1.78125,0.42188 0.78125,0.42187 1.26562,1.09375 v -5.46875 h 1.875 v 15.26564 z m -5.92187,-5.51562 q 0,2.125 0.89062,3.17187 0.90625,1.04688 2.125,1.04688 1.21875,0 2.07813,-1 0.85937,-1 0.85937,-3.0625 0,-2.28125 -0.875,-3.34377 -0.875,-1.0625 -2.15625,-1.0625 -1.25,0 -2.09375,1.03125 -0.82812,1.01564 -0.82812,3.21877 z m 13.68982,5.51562 -4.21875,-11.06251 h 1.98437 l 2.375,6.62501 q 0.39063,1.07813 0.70313,2.23438 0.25,-0.875 0.70312,-2.10938 l 2.45313,-6.75001 h 1.9375 l -4.1875,11.06251 z m 14.80468,-1.35937 q -1.04687,0.875 -2.01562,1.25 -0.95313,0.35937 -2.0625,0.35937 -1.8125,0 -2.79688,-0.89062 -0.98437,-0.89063 -0.98437,-2.28125 0,-0.8125 0.375,-1.48438 0.375,-0.67187 0.96875,-1.07812 0.59375,-0.40625 1.34375,-0.60938 0.5625,-0.14062 1.67187,-0.28125 2.26563,-0.26562 3.34375,-0.64062 0.0156,-0.39063 0.0156,-0.5 0,-1.14065 -0.53125,-1.6094 -0.71875,-0.64062 -2.14063,-0.64062 -1.32812,0 -1.95312,0.46875 -0.625,0.46875 -0.9375,1.64064 l -1.82813,-0.25 q 0.25,-1.17189 0.8125,-1.89064 0.57813,-0.73438 1.65625,-1.125 1.09375,-0.39063 2.51563,-0.39063 1.42187,0 2.29687,0.34375 0.89063,0.32813 1.3125,0.82813 0.42188,0.5 0.57813,1.28125 0.0937,0.46876 0.0937,1.71877 v 2.5 q 0,2.625 0.125,3.3125 0.125,0.6875 0.46875,1.32812 h -1.95313 q -0.29687,-0.57812 -0.375,-1.35937 z m -0.15625,-4.1875 q -1.01562,0.40625 -3.0625,0.70312 -1.15625,0.17188 -1.64062,0.375 -0.46875,0.20313 -0.73438,0.60938 -0.26562,0.40625 -0.26562,0.89062 0,0.75 0.5625,1.25 0.57812,0.5 1.67187,0.5 1.07813,0 1.92188,-0.46875 0.84375,-0.48437 1.25,-1.29687 0.29687,-0.64063 0.29687,-1.875 z m 4.7992,5.54687 v -11.06251 h 1.6875 v 1.57812 q 1.21875,-1.82812 3.51562,-1.82812 1,0 1.84375,0.35937 0.84375,0.35938 1.25,0.95313 0.42188,0.57812 0.59375,1.375 0.0937,0.51564 0.0937,1.82814 v 6.79687 h -1.875 v -6.73437 q 0,-1.14063 -0.21875,-1.70313 -0.21875,-0.57814 -0.78125,-0.90626 -0.54687,-0.34375 -1.29687,-0.34375 -1.20313,0 -2.07813,0.76562 -0.85937,0.75002 -0.85937,2.87502 v 6.04687 z m 19.08044,-4.04687 1.84375,0.23437 q -0.29687,1.90625 -1.54687,2.98438 -1.25,1.07812 -3.0625,1.07812 -2.26563,0 -3.65625,-1.48437 -1.375,-1.48438 -1.375,-4.25 0,-1.79688 0.59375,-3.14065 0.59375,-1.34375 1.8125,-2.01562 1.21875,-0.67188 2.64062,-0.67188 1.79688,0 2.9375,0.92188 1.15625,0.90625 1.48438,2.57814 l -1.82813,0.28125 q -0.26562,-1.10939 -0.92187,-1.67189 -0.65625,-0.5625 -1.59375,-0.5625 -1.42188,0 -2.3125,1.01562 -0.875,1.01565 -0.875,3.20315 0,2.23437 0.84375,3.25 0.85937,1 2.23437,1 1.10938,0 1.84375,-0.67188 0.73438,-0.67187 0.9375,-2.07812 z m 11.02344,0.48437 1.92188,0.23438 q -0.45313,1.70312 -1.6875,2.64062 -1.23438,0.9375 -3.17188,0.9375 -2.42187,0 -3.84375,-1.48437 -1.42187,-1.5 -1.42187,-4.20313 0,-2.79687 1.4375,-4.32814 1.4375,-1.54688 3.73437,-1.54688 2.21875,0 3.60938,1.51563 1.40625,1.50002 1.40625,4.25002 0,0.15625 0,0.5 h -8.25 q 0.10937,1.8125 1.03125,2.78125 0.92187,0.96875 2.3125,0.96875 1.03125,0 1.75,-0.53125 0.73437,-0.54688 1.17187,-1.73438 z m -6.15625,-3.03125 h 6.17188 q -0.125,-1.39062 -0.70313,-2.09377 -0.90625,-1.07812 -2.32812,-1.07812 -1.29688,0 -2.17188,0.85937 -0.875,0.85939 -0.96875,2.31252 z m 17.61169,6.59375 v -1.39062 q -1.04687,1.64062 -3.09375,1.64062 -1.3125,0 -2.42187,-0.71875 -1.10938,-0.73437 -1.71875,-2.04687 -0.60938,-1.3125 -0.60938,-3 0,-1.65625 0.54688,-3.00002 0.54687,-1.35938 1.65625,-2.07813 1.10937,-0.71875 2.46875,-0.71875 1,0 1.78125,0.42188 0.78125,0.42187 1.26562,1.09375 v -5.46875 h 1.875 v 15.26564 z m -5.92187,-5.51562 q 0,2.125 0.89062,3.17187 0.90625,1.04688 2.125,1.04688 1.21875,0 2.07813,-1 0.85937,-1 0.85937,-3.0625 0,-2.28125 -0.875,-3.34377 -0.875,-1.0625 -2.15625,-1.0625 -1.25,0 -2.09375,1.03125 -0.82812,1.01564 -0.82812,3.21877 z"
       fill="#ffffff" />
    <path
       inkscape:connector-curvature="0"
       id="path51"
       fill-rule="nonzero"
       d="m 775.76215,290.48108 v -13.46875 h -5.03125 v -1.79687 h 12.09375 v 1.79687 h -5.04687 v 13.46875 z m 8.09576,0 v -11.0625 h 1.6875 v 1.67188 q 0.64063,-1.17188 1.1875,-1.54688 0.54688,-0.375 1.20313,-0.375 0.95312,0 1.92187,0.60938 l -0.64062,1.73437 q -0.6875,-0.40625 -1.375,-0.40625 -0.60938,0 -1.10938,0.375 -0.48437,0.35938 -0.6875,1.01563 -0.3125,1 -0.3125,2.1875 v 5.79687 z m 14.3368,-1.35937 q -1.04688,0.875 -2.01563,1.25 -0.95312,0.35937 -2.0625,0.35937 -1.8125,0 -2.79687,-0.89062 -0.98438,-0.89063 -0.98438,-2.28125 0,-0.8125 0.375,-1.48438 0.375,-0.67187 0.96875,-1.07812 0.59375,-0.40625 1.34375,-0.60938 0.5625,-0.14062 1.67188,-0.28125 2.26562,-0.26562 3.34375,-0.64062 0.0156,-0.39063 0.0156,-0.5 0,-1.14063 -0.53125,-1.60938 -0.71875,-0.64062 -2.14062,-0.64062 -1.32813,0 -1.95313,0.46875 -0.625,0.46875 -0.9375,1.64062 l -1.82812,-0.25 q 0.25,-1.17187 0.8125,-1.89062 0.57812,-0.73438 1.65625,-1.125 1.09375,-0.39063 2.51562,-0.39063 1.42188,0 2.29688,0.34375 0.89062,0.32813 1.3125,0.82813 0.42187,0.5 0.57812,1.28125 0.0937,0.46875 0.0937,1.71875 v 2.5 q 0,2.625 0.125,3.3125 0.125,0.6875 0.46875,1.32812 h -1.95312 q -0.29688,-0.57812 -0.375,-1.35937 z m -0.15625,-4.1875 q -1.01563,0.40625 -3.0625,0.70312 -1.15625,0.17188 -1.64063,0.375 -0.46875,0.20313 -0.73437,0.60938 -0.26563,0.40625 -0.26563,0.89062 0,0.75 0.5625,1.25 0.57813,0.5 1.67188,0.5 1.07812,0 1.92187,-0.46875 0.84375,-0.48437 1.25,-1.29687 0.29688,-0.64063 0.29688,-1.875 z m 4.81482,-7.5625 v -2.15625 h 1.875 v 2.15625 z m 0,13.10937 v -11.0625 h 1.875 v 11.0625 z m 4.72283,0 v -11.0625 h 1.6875 v 1.57813 q 1.21875,-1.82813 3.51563,-1.82813 1,0 1.84375,0.35938 0.84375,0.35937 1.25,0.95312 0.42187,0.57813 0.59375,1.375 0.0937,0.51563 0.0937,1.82813 v 6.79687 h -1.875 v -6.73437 q 0,-1.14063 -0.21875,-1.70313 -0.21875,-0.57812 -0.78125,-0.90625 -0.54688,-0.34375 -1.29688,-0.34375 -1.20312,0 -2.07812,0.76563 -0.85938,0.75 -0.85938,2.875 v 6.04687 z m 11.87732,-13.10937 v -2.15625 h 1.875 v 2.15625 z m 0,13.10937 v -11.0625 h 1.875 v 11.0625 z m 4.72278,0 v -11.0625 h 1.6875 v 1.57813 q 1.21875,-1.82813 3.51563,-1.82813 1,0 1.84375,0.35938 0.84375,0.35937 1.25,0.95312 0.42187,0.57813 0.59375,1.375 0.0937,0.51563 0.0937,1.82813 v 6.79687 h -1.875 v -6.73437 q 0,-1.14063 -0.21875,-1.70313 -0.21875,-0.57812 -0.78125,-0.90625 -0.54688,-0.34375 -1.29688,-0.34375 -1.20312,0 -2.07812,0.76563 -0.85938,0.75 -0.85938,2.875 v 6.04687 z m 11.51795,0.92188 1.82812,0.26562 q 0.10938,0.84375 0.625,1.23438 0.70313,0.51562 1.90625,0.51562 1.3125,0 2.01563,-0.53125 0.70312,-0.51562 0.95312,-1.45312 0.15625,-0.5625 0.14063,-2.40625 -1.23438,1.45312 -3.0625,1.45312 -2.28125,0 -3.53125,-1.64062 -1.25,-1.65625 -1.25,-3.95313 0,-1.57812 0.5625,-2.92187 0.57812,-1.34375 1.67187,-2.0625 1.09375,-0.73438 2.5625,-0.73438 1.95313,0 3.21875,1.57813 v -1.32813 h 1.73438 v 9.5625 q 0,2.57813 -0.53125,3.65625 -0.51563,1.07813 -1.65625,1.70313 -1.14063,0.625 -2.8125,0.625 -1.98438,0 -3.20313,-0.89063 -1.21875,-0.89062 -1.17187,-2.67187 z m 1.54687,-6.65625 q 0,2.1875 0.85938,3.1875 0.875,1 2.17187,1 1.29688,0 2.17188,-1 0.875,-1 0.875,-3.125 0,-2.03125 -0.90625,-3.0625 -0.89063,-1.03125 -2.17188,-1.03125 -1.25,0 -2.125,1.01562 -0.875,1.01563 -0.875,3.01563 z"
       fill="#ffffff" />
    <path
       inkscape:connector-curvature="0"
       id="path53"
       fill-rule="evenodd"
       d="m 714.5818,194.97467 v 0 c 0,-13.49254 11.08832,-24.43039 24.76636,-24.43039 v 0 c 6.56848,0 12.86792,2.5739 17.51251,7.15549 4.64459,4.58159 7.25391,10.79556 7.25391,17.2749 v 0 c 0,13.49254 -11.08832,24.4304 -24.76642,24.4304 v 0 c -13.67804,0 -24.76636,-10.93786 -24.76636,-24.4304 z"
       fill="#ffffff" />
    <path
       inkscape:connector-curvature="0"
       id="path55"
       fill-rule="evenodd"
       d="m 714.5818,194.97467 v 0 c 0,-13.49254 11.08832,-24.43039 24.76636,-24.43039 v 0 c 6.56848,0 12.86792,2.5739 17.51251,7.15549 4.64459,4.58159 7.25391,10.79556 7.25391,17.2749 v 0 c 0,13.49254 -11.08832,24.4304 -24.76642,24.4304 v 0 c -13.67804,0 -24.76636,-10.93786 -24.76636,-24.4304 z"
       stroke-linecap="butt"
       stroke-linejoin="round"
       stroke-width="1.0"
       stroke="#69acdf" />
    <path
       inkscape:connector-curvature="0"
       id="path57"
       fill-rule="nonzero"
       d="m 737.90283,194.44405 h 1.09375 q 1.01562,-0.0156 1.59375,-0.53125 0.59375,-0.53125 0.59375,-1.42188 0,-2 -1.98438,-2 -0.9375,0 -1.5,0.53125 -0.5625,0.53125 -0.5625,1.42188 h -1.4375 q 0,-1.35938 0.98438,-2.25 0.98437,-0.89063 2.51562,-0.89063 1.60938,0 2.51563,0.85938 0.92187,0.84375 0.92187,2.35937 0,0.73438 -0.48437,1.4375 -0.48438,0.6875 -1.3125,1.03125 0.9375,0.29688 1.45312,0.98438 0.51563,0.6875 0.51563,1.6875 0,1.53125 -1,2.4375 -1,0.89062 -2.60938,0.89062 -1.59375,0 -2.60937,-0.85937 -1,-0.875 -1,-2.29688 h 1.45312 q 0,0.89063 0.57813,1.4375 0.59375,0.53125 1.57812,0.53125 1.04688,0 1.59375,-0.54687 0.5625,-0.54688 0.5625,-1.5625 0,-1 -0.60937,-1.53125 -0.60938,-0.53125 -1.75,-0.54688 h -1.09375 z"
       fill="#000000" />
    <path
       inkscape:connector-curvature="0"
       id="path59"
       fill-rule="evenodd"
       d="m 302.9308,215.83043 h 9.09363 l 24.79614,54.20473 -24.79614,54.20471 h -9.09363 l 24.79611,-54.20471 z"
       fill="#69acdf" />
    <path
       inkscape:connector-curvature="0"
       id="path61"
       fill-rule="evenodd"
       d="m 631.3034,215.83043 h 9.09363 l 24.79614,54.20473 -24.79614,54.20471 h -9.09363 l 24.79614,-54.20471 z"
       fill="#69acdf" />
  </g>
</svg>
